<svg viewBox="0 0 512 512" xmlns="http://www.w3.org/2000/svg" xmlns:bx="https://boxy-svg.com">
  <defs>
    <linearGradient gradientUnits="userSpaceOnUse" x1="256" y1="137.861" x2="256" y2="157.576" id="gradient-1" gradientTransform="matrix(0.907556, 0, 0, 1.014452, 23.665644, 44.118744)">
      <stop offset="0" style="stop-color: rgb(0, 37, 50);"></stop>
      <stop offset="1" style="stop-color: rgba(0, 0, 0, 0);"></stop>
    </linearGradient>
    <linearGradient gradientUnits="userSpaceOnUse" x1="256" y1="0" x2="256" y2="512.001" id="gradient-2">
      <stop offset="0" style="stop-color: rgb(0, 54, 65);"></stop>
      <stop offset="1" style="stop-color: rgb(0, 33, 44);"></stop>
    </linearGradient>
  </defs>
  <g transform="matrix(0.6, 0, 0, 0.6, 102.399994, 102.399994)">
    <title>Semaphore-Calendar</title>
    <rect style="fill: rgb(1, 3, 19);" x="66" y="158.499" width="380" height="295" rx="88.149" ry="88.149">
      <title>Backplate</title>
    </rect>
    <path d="M 154.149 98.501 L 357.851 98.501 C 405.639 98.501 444.545 136.528 445.96 183.973 L 66.04 183.973 C 67.455 136.528 106.361 98.501 154.149 98.501 Z" style="fill: rgb(35, 150, 255);">
      <title>Middleplate</title>
    </path>
    <path style="fill: rgb(25, 57, 71);" d="M 66 183.973 H 446 V 325.824 A 88.149 88.149 0 0 1 357.851 413.973 H 154.149 A 88.149 88.149 0 0 1 66 325.824 V 183.973 Z" bx:shape="rect 66 183.973 380 230 0 0 88.149 88.149 1@7d860331">
      <title>Frontplate</title>
    </path>
    <rect style="fill: rgb(91, 128, 141);" x="160" y="58.501" width="50" height="100" rx="27.547" ry="27.547">
      <title>Left Tick Shadow</title>
    </rect>
    <rect style="fill: rgb(255, 249, 236);" x="160" y="58.501" width="50" height="85" rx="27.547" ry="27.547">
      <title>Left Tick</title>
    </rect>
    <rect style="fill: rgb(91, 128, 141);" x="302" y="58.501" width="50" height="100" rx="27.547" ry="27.547">
      <title>RIght Tick Shadow</title>
    </rect>
    <rect style="fill: rgb(255, 249, 236);" x="302" y="58.501" width="50" height="85" rx="27.547" ry="27.547">
      <title>RIght Tick</title>
    </rect>
    <rect x="66" y="183.973" width="380" height="20" style="fill: url(#gradient-1);">
      <title>Plate Shadow</title>
    </rect>
    <ellipse style="fill: rgb(255, 68, 2);" cx="149.731" cy="301.236" rx="40" ry="40">
      <title>Red Circle</title>
    </ellipse>
    <ellipse style="fill: rgb(219, 208, 0);" cx="256" cy="301.236" rx="40" ry="40">
      <title>Green Circle</title>
    </ellipse>
    <ellipse style="fill: rgb(0, 219, 127);" cx="363.716" cy="301.236" rx="40" ry="40">
      <title>Blue Circle</title>
    </ellipse>
  </g>
</svg>